<svg width="1920" height="173" viewBox="0 0 1920 173" fill="none" xmlns="http://www.w3.org/2000/svg">
<path fill-rule="evenodd" clip-rule="evenodd" d="M0 0.289551L79.5 6.77867C160.5 13.2678 319.5 26.246 480 48.2092C640.5 70.6716 799.5 102.618 960 109.107C1120.5 115.596 1279.5 96.1289 1440 90.1389C1600.5 83.6498 1759.5 90.1389 1840.5 93.1339L1920 96.1289V173H1840.5C1759.5 173 1600.5 173 1440 173C1279.5 173 1120.5 173 960 173C799.5 173 640.5 173 480 173C319.5 173 160.5 173 79.5 173H0V0.289551Z" fill="#CDC3F4"/>
<path fill-rule="evenodd" clip-rule="evenodd" d="M0 69.3737L64 83.1906C128 97.0074 256 124.641 384 117.733C512 110.824 640 69.3737 768 41.7401C896 14.1064 1024 0.289551 1152 0.289551C1280 0.289551 1408 14.1064 1536 38.2859C1664 62.4653 1792 97.0074 1856 114.278L1920 131.55V173H1856C1792 173 1664 173 1536 173C1408 173 1280 173 1152 173C1024 173 896 173 768 173C640 173 512 173 384 173C256 173 128 173 64 173H0V69.3737Z" fill="#4526C5" fill-opacity="0.64"/>
</svg>
